<svg xmlns="http://www.w3.org/2000/svg" width="97" height="52" fill="none"><path fill="url(#a)" fill-rule="evenodd" d="M53.595 49.564c6.361 2.996 15.134.947 22.595-2.447 6.96-3.165 14.871-8.462 18.898-15.168 2.556-4.254 1.985-8.828-.024-12.85h-7.701c-4.762 0-7.147 2.384-7.147 7.153v11.233h-3.06V26.252c0-6.811 3.402-10.214 10.207-10.214h5.836a25.577 25.577 0 0 0-1.71-2.117c-1.777-1.976-4.46-3.845-6.772-5.616-2.231-1.71-4.652-3.054-7.867-4.556-5.543-2.59-14.342-4.953-20.686-3.07-3.73 1.107-5.212 2.888-6.93 5.56-.361 0-2.504 4.407-3.261 9.139-1.37 8.571-1.718 29.788 7.622 34.186Zm18.958-31.993c-1.36 0-2.043-.683-2.043-2.043 0-1.366.684-2.043 2.043-2.043 1.368 0 2.044.677 2.044 2.043 0 1.36-.676 2.043-2.044 2.043Zm-1.527 19.914v-13.03l-3.068.718v5.165c0 4.762-2.384 7.147-7.154 7.147h-7.146c-4.77 0-7.147-2.043-7.147-6.13 0-2.97 1.032-4.67 3.103-5.103l2.646-.602 12.608-2.887c-.123-2.443-1.482-3.665-4.064-3.665h-7.146c-2.726 0-4.086 1.366-4.086 4.086h-3.06c0-4.762 2.377-7.147 7.146-7.147h7.146c4.382 0 6.749 2.012 7.106 6.03l6.178-1.414v16.832h-3.062Zm-10.222-3.068c2.727 0 4.086-1.36 4.086-4.08v-4.392l-14.48 3.326c-.559.195-.838.544-.838 1.067 0 2.72 1.36 4.079 4.086 4.079h7.146Z" clip-rule="evenodd"/><path fill="#fff" fill-rule="evenodd" d="M14.162 16.767c4.404 1.163 7.393 4.931 7.393 9.877 0 5.99-4.383 10.29-10.352 10.29-5.975 0-10.393-4.3-10.393-10.29 0-4.494 2.486-8.015 6.254-9.494v2.756C4.949 21.222 3.6 23.608 3.6 26.644c0 4.723 3.26 7.871 7.602 7.871 4.342 0 7.561-3.148 7.561-7.87 0-3.565-1.836-6.232-4.602-7.327v-2.55Zm20.695-.375c-3.529 0-6.284 1.42-7.759 3.878v-3.724h-2.634v20.197h2.75V26.145c0-4.608 2.757-7.295 7.135-7.295 3.88 0 6.127 2.188 6.127 6.45v11.442h2.756v-11.71c0-5.799-3.412-8.64-8.375-8.64Zm-22.48-2.317c0-.471-.188-.923-.523-1.255a1.765 1.765 0 0 0-1.251-.52h-.005c-.468 0-.92.186-1.256.52-.33.332-.519.784-.519 1.255v11.608c0 .47.188.922.519 1.255.335.332.788.52 1.256.52h.005c.468 0 .92-.188 1.25-.52.336-.333.524-.785.524-1.255V14.075Z" clip-rule="evenodd"/><defs><linearGradient id="a" x1="94.282" x2="68.719" y1="72.739" y2="8.383" gradientUnits="userSpaceOnUse"><stop stop-color="#8E04B7"/><stop offset="1" stop-color="#E13C52"/></linearGradient></defs></svg>